<svg xmlns="http://www.w3.org/2000/svg" width="1000" height="1000"><rect width="1000" height="1000" fill="black"/><circle cx="463" cy="721" r="1.24" fill="white" opacity="0.75"/><circle cx="546" cy="530" r="1.13" fill="white" opacity="0.86"/><circle cx="435" cy="116" r="0.71" fill="white" opacity="0.73"/><circle cx="746" cy="367" r="1.17" fill="white" opacity="0.98"/><circle cx="686" cy="147" r="1.28" fill="white" opacity="0.82"/><circle cx="846" cy="932" r="0.78" fill="white" opacity="0.78"/><circle cx="512" cy="519" r="0.74" fill="white" opacity="0.89"/><circle cx="235" cy="246" r="1.66" fill="white" opacity="0.54"/><circle cx="485" cy="894" r="1.43" fill="white" opacity="0.63"/><circle cx="575" cy="570" r="0.84" fill="white" opacity="0.80"/><circle cx="370" cy="761" r="1.19" fill="white" opacity="0.82"/><circle cx="44" cy="647" r="0.50" fill="white" opacity="0.82"/><circle cx="386" cy="105" r="0.62" fill="white" opacity="0.51"/><circle cx="293" cy="81" r="1.58" fill="white" opacity="0.90"/><circle cx="359" cy="721" r="1.71" fill="white" opacity="0.78"/><circle cx="126" cy="268" r="0.90" fill="white" opacity="0.78"/><circle cx="870" cy="892" r="1.70" fill="white" opacity="0.62"/><circle cx="489" cy="777" r="0.89" fill="white" opacity="0.59"/><circle cx="294" cy="893" r="1.68" fill="white" opacity="0.95"/><circle cx="202" cy="391" r="0.45" fill="white" opacity="0.77"/><circle cx="98" cy="299" r="1.13" fill="white" opacity="0.53"/><circle cx="638" cy="660" r="0.76" fill="white" opacity="0.62"/><circle cx="870" cy="815" r="1.69" fill="white" opacity="0.56"/><circle cx="60" cy="864" r="1.37" fill="white" opacity="0.92"/><circle cx="762" cy="254" r="1.80" fill="white" opacity="0.69"/><circle cx="632" cy="565" r="0.95" fill="white" opacity="0.65"/><circle cx="834" cy="434" r="1.56" fill="white" opacity="0.93"/><circle cx="170" cy="954" r="0.72" fill="white" opacity="0.83"/><circle cx="514" cy="93" r="1.22" fill="white" opacity="0.97"/><circle cx="238" cy="988" r="1.72" fill="white" opacity="0.72"/><circle cx="549" cy="542" r="0.88" fill="white" opacity="0.72"/><circle cx="48" cy="134" r="1.73" fill="white" opacity="0.97"/><circle cx="474" cy="489" r="1.35" fill="white" opacity="0.57"/><circle cx="641" cy="90" r="0.69" fill="white" opacity="0.59"/><circle cx="579" cy="370" r="1.81" fill="white" opacity="0.82"/><circle cx="820" cy="939" r="0.43" fill="white" opacity="0.87"/><circle cx="159" cy="214" r="0.54" fill="white" opacity="0.65"/><circle cx="303" cy="495" r="1.50" fill="white" opacity="0.74"/><circle cx="668" cy="882" r="0.51" fill="white" opacity="0.52"/><circle cx="316" cy="942" r="0.42" fill="white" opacity="0.63"/><circle cx="893" cy="905" r="1.47" fill="white" opacity="0.71"/><circle cx="513" cy="300" r="0.86" fill="white" opacity="0.55"/><circle cx="36" cy="791" r="0.49" fill="white" opacity="0.81"/><circle cx="67" cy="66" r="0.65" fill="white" opacity="0.94"/><circle cx="166" cy="587" r="1.08" fill="white" opacity="0.96"/><circle cx="879" cy="434" r="1.34" fill="white" opacity="0.57"/><circle cx="807" cy="22" r="1.00" fill="white" opacity="0.89"/><circle cx="543" cy="620" r="1.35" fill="white" opacity="0.53"/><circle cx="361" cy="167" r="0.90" fill="white" opacity="0.60"/><circle cx="884" cy="784" r="1.33" fill="white" opacity="0.58"/><circle cx="815" cy="35" r="0.52" fill="white" opacity="0.76"/><circle cx="741" cy="237" r="1.10" fill="white" opacity="0.52"/><circle cx="397" cy="211" r="0.83" fill="white" opacity="0.91"/><circle cx="334" cy="802" r="1.05" fill="white" opacity="0.85"/><circle cx="353" cy="296" r="1.68" fill="white" opacity="0.81"/><circle cx="902" cy="835" r="0.85" fill="white" opacity="0.68"/><circle cx="856" cy="889" r="0.45" fill="white" opacity="0.80"/><circle cx="465" cy="457" r="1.64" fill="white" opacity="0.96"/><circle cx="437" cy="359" r="0.79" fill="white" opacity="0.56"/><circle cx="112" cy="653" r="1.41" fill="white" opacity="0.94"/><circle cx="112" cy="599" r="0.43" fill="white" opacity="0.94"/><circle cx="988" cy="834" r="1.42" fill="white" opacity="0.86"/><circle cx="925" cy="380" r="1.36" fill="white" opacity="0.58"/><circle cx="55" cy="734" r="1.36" fill="white" opacity="0.53"/><circle cx="50" cy="474" r="1.55" fill="white" opacity="0.54"/><circle cx="819" cy="595" r="0.57" fill="white" opacity="0.71"/><circle cx="484" cy="437" r="1.57" fill="white" opacity="0.79"/><circle cx="733" cy="56" r="0.74" fill="white" opacity="0.97"/><circle cx="266" cy="912" r="1.36" fill="white" opacity="0.72"/><circle cx="584" cy="132" r="0.80" fill="white" opacity="0.63"/><circle cx="645" cy="615" r="1.17" fill="white" opacity="0.52"/><circle cx="757" cy="345" r="1.35" fill="white" opacity="0.69"/><circle cx="655" cy="157" r="1.63" fill="white" opacity="0.55"/><circle cx="701" cy="383" r="0.67" fill="white" opacity="0.63"/><circle cx="226" cy="29" r="1.50" fill="white" opacity="0.97"/><circle cx="145" cy="796" r="1.05" fill="white" opacity="0.89"/><circle cx="664" cy="864" r="1.71" fill="white" opacity="0.60"/><circle cx="110" cy="368" r="1.27" fill="white" opacity="0.93"/><circle cx="222" cy="905" r="0.56" fill="white" opacity="0.99"/><circle cx="614" cy="46" r="1.06" fill="white" opacity="0.93"/><circle cx="291" cy="859" r="0.88" fill="white" opacity="0.87"/><circle cx="603" cy="399" r="0.72" fill="white" opacity="0.69"/><circle cx="603" cy="989" r="1.14" fill="white" opacity="0.57"/><circle cx="22" cy="894" r="1.41" fill="white" opacity="0.67"/><circle cx="417" cy="357" r="0.60" fill="white" opacity="0.75"/><circle cx="750" cy="840" r="1.08" fill="white" opacity="0.63"/><circle cx="161" cy="233" r="0.54" fill="white" opacity="0.59"/><circle cx="206" cy="11" r="1.53" fill="white" opacity="0.80"/><circle cx="921" cy="151" r="1.13" fill="white" opacity="0.54"/><circle cx="214" cy="93" r="0.71" fill="white" opacity="0.83"/><circle cx="735" cy="888" r="1.61" fill="white" opacity="0.81"/><circle cx="535" cy="900" r="0.97" fill="white" opacity="0.57"/><circle cx="124" cy="442" r="0.56" fill="white" opacity="0.74"/><circle cx="253" cy="790" r="0.98" fill="white" opacity="0.56"/><circle cx="370" cy="753" r="0.76" fill="white" opacity="0.97"/><circle cx="772" cy="165" r="1.20" fill="white" opacity="0.89"/><circle cx="588" cy="550" r="1.65" fill="white" opacity="0.83"/><circle cx="703" cy="926" r="1.41" fill="white" opacity="0.77"/><circle cx="498" cy="563" r="1.42" fill="white" opacity="0.92"/><circle cx="987" cy="162" r="1.80" fill="white" opacity="0.73"/><circle cx="478" cy="214" r="0.60" fill="white" opacity="0.93"/><circle cx="874" cy="208" r="0.79" fill="white" opacity="0.52"/><circle cx="519" cy="365" r="0.96" fill="white" opacity="0.80"/><circle cx="216" cy="734" r="1.60" fill="white" opacity="0.79"/><circle cx="559" cy="923" r="1.31" fill="white" opacity="0.93"/><circle cx="631" cy="18" r="1.34" fill="white" opacity="0.66"/><circle cx="447" cy="948" r="1.26" fill="white" opacity="0.75"/><circle cx="902" cy="550" r="1.18" fill="white" opacity="0.89"/><circle cx="823" cy="390" r="0.64" fill="white" opacity="0.64"/><circle cx="320" cy="816" r="0.67" fill="white" opacity="0.58"/><circle cx="146" cy="562" r="1.65" fill="white" opacity="0.57"/><circle cx="299" cy="863" r="0.54" fill="white" opacity="0.81"/><circle cx="702" cy="416" r="0.67" fill="white" opacity="0.71"/><circle cx="428" cy="478" r="1.36" fill="white" opacity="0.91"/><circle cx="522" cy="564" r="0.74" fill="white" opacity="0.61"/><circle cx="698" cy="683" r="1.26" fill="white" opacity="0.81"/><circle cx="675" cy="144" r="1.36" fill="white" opacity="0.61"/><circle cx="965" cy="608" r="0.52" fill="white" opacity="0.86"/><circle cx="239" cy="307" r="1.32" fill="white" opacity="0.68"/><circle cx="715" cy="217" r="0.99" fill="white" opacity="0.53"/></svg>